{
  "accessors": [
    {
      "bufferView": 2,
      "componentType": 5126,
      "count": 28475,
      "max": [
        41.840969085693359,
        104.40311431884766,
        22.334514617919922
      ],
      "min": [
        -33.281284332275391,
        -44.034454345703125,
        -43.769908905029297
      ],
      "type": "VEC3"
    },
    {
      "bufferView": 2,
      "byteOffset": 341700,
      "componentType": 5126,
      "count": 28475,
      "max": [
        0.99961131811141968,
        0.99996525049209595,
        0.99998623132705688
      ],
      "min": [
        -0.99997282028198242,
        -1,
        -0.9999929666519165
      ],
      "type": "VEC3"
    },
    {
      "bufferView": 3,
      "componentType": 5126,
      "count": 28475,
      "max": [
        0.99999958276748657,
        0.99999904632568359,
        0.99997216463088989,
        1
      ],
      "min": [
        -0.99999535083770752,
        -0.99976843595504761,
        -0.99999970197677612,
        -1
      ],
      "type": "VEC4"
    },
    {
      "bufferView": 1,
      "componentType": 5126,
      "count": 28475,
      "max": [
        1.0000001192092896,
        1.1143307685852051
      ],
      "min": [
        0,
        -0.10315264761447906
      ],
      "type": "VEC2"
    },
    {
      "bufferView": 0,
      "componentType": 5125,
      "count": 168489,
      "max": [
        28474
      ],
      "min": [
        0
      ],
      "type": "SCALAR"
    }
  ],
  "asset": {
    "extras": {
      "author": "JavierCarmona (https://sketchfab.com/JavierCarmona)",
      "license": "CC-BY-NC-SA-4.0 (http://creativecommons.org/licenses/by-nc-sa/4.0/)",
      "source": "https://sketchfab.com/3d-models/hand-v-655baab41f23463587045a848f795483",
      "title": "Hand V"
    },
    "generator": "Sketchfab-6.44.0",
    "version": "2.0"
  },
  "bufferViews": [
    {
      "buffer": 0,
      "byteLength": 673956,
      "byteOffset": 0,
      "name": "floatBufferViews",
      "target": 34963
    },
    {
      "buffer": 0,
      "byteLength": 227800,
      "byteOffset": 673956,
      "byteStride": 8,
      "name": "floatBufferViews",
      "target": 34962
    },
    {
      "buffer": 0,
      "byteLength": 683400,
      "byteOffset": 901756,
      "byteStride": 12,
      "name": "floatBufferViews",
      "target": 34962
    },
    {
      "buffer": 0,
      "byteLength": 455600,
      "byteOffset": 1585156,
      "byteStride": 16,
      "name": "floatBufferViews",
      "target": 34962
    }
  ],
  "buffers": [
    {
      "byteLength": 2040756,
      "uri": "scene.bin"
    }
  ],
  "materials": [
    {
      "doubleSided": true,
      "name": "Material_2",
      "pbrMetallicRoughness": {
        "baseColorFactor": [
          1,
          1,
          1,
          1
        ],
        "metallicFactor": 0,
        "roughnessFactor": 0.59999999999999998
      }
    }
  ],
  "meshes": [
    {
      "name": "Box001_Material #2_0",
      "primitives": [
        {
          "attributes": {
            "NORMAL": 1,
            "POSITION": 0,
            "TANGENT": 2,
            "TEXCOORD_0": 3
          },
          "indices": 4,
          "material": 0,
          "mode": 4
        }
      ]
    }
  ],
  "nodes": [
    {
      "children": [
        1
      ],
      "name": "RootNode (gltf orientation matrix)",
      "rotation": [
        -0.70710678118654746,
        -0,
        -0,
        0.70710678118654757
      ]
    },
    {
      "children": [
        2
      ],
      "matrix": [
        -0.99999213218688965,
        0.0039611463434994221,
        0,
        0,
        -0.0039611463434994221,
        -0.99999213218688965,
        0,
        0,
        0,
        0,
        1,
        0,
        62.779586791992188,
        21.31098747253418,
        -9.772089697435149e-07,
        1
      ],
      "name": "RootNode (model correction matrix)"
    },
    {
      "children": [
        3
      ],
      "matrix": [
        1,
        0,
        0,
        0,
        0,
        0,
        1,
        0,
        0,
        -1,
        0,
        0,
        0,
        0,
        0,
        1
      ],
      "name": "257c0fa7ff32461a8ce55af947e1bbb6.fbx"
    },
    {
      "children": [
        4
      ],
      "name": "RootNode"
    },
    {
      "children": [
        5
      ],
      "matrix": [
        0.87872207164764404,
        0,
        0,
        0,
        0,
        0.999999999999999,
        4.3711388286737922e-08,
        0,
        0,
        -4.3711388286737922e-08,
        0.999999999999999,
        0,
        27.60791015625,
        44.034027099609375,
        0,
        1
      ],
      "name": "Box001"
    },
    {
      "mesh": 0,
      "name": "Box001_Material #2_0"
    }
  ],
  "scene": 0,
  "scenes": [
    {
      "name": "OSG_Scene",
      "nodes": [
        0
      ]
    }
  ]
}

